<svg width="45" height="45" viewBox="0 0 45 45" fill="none" xmlns="http://www.w3.org/2000/svg">
<path d="M22.5 45C27.5133 45 32.3829 43.3257 36.3362 40.2428C40.2896 37.16 43.1 32.8451 44.3217 27.983C45.5434 23.1208 45.1062 17.99 43.0797 13.4046C41.0531 8.81919 37.5532 5.04195 33.1354 2.67227C28.7175 0.302584 23.6348 -0.523792 18.6938 0.324275C13.7528 1.17234 9.23653 3.64627 5.86171 7.35347C2.48689 11.0607 0.446827 15.7888 0.0652657 20.7875C-0.316299 25.7862 0.982494 30.7692 3.75554 34.9457L15.0022 27.4783C13.893 25.8077 13.3735 23.8145 13.5261 21.815C13.6787 19.8155 14.4948 17.9243 15.8447 16.4414C17.1946 14.9585 19.0011 13.9689 20.9775 13.6297C22.9539 13.2905 24.987 13.621 26.7541 14.5689C28.5213 15.5168 29.9212 17.0277 30.7319 18.8618C31.5425 20.696 31.7174 22.7483 31.2287 24.6932C30.74 26.638 29.6158 28.364 28.0345 29.5971C26.4532 30.8303 24.5053 31.5 22.5 31.5V45Z" fill="#D53F8C"/>
<path d="M22.5 45C26.2001 45 29.8432 44.0875 33.1064 42.3432C36.3697 40.599 39.1524 38.0769 41.2081 35.0003C43.2638 31.9238 44.529 28.3877 44.8917 24.7054C45.2543 21.0231 44.7033 17.3081 43.2873 13.8896C41.8713 10.4711 39.6341 7.45461 36.7738 5.10727C33.9136 2.75992 30.5186 1.15419 26.8895 0.432331C23.2605 -0.289532 19.5094 -0.105254 15.9686 0.968842C12.4278 2.04294 9.2065 3.9737 6.5901 6.5901L16.136 16.136C17.1826 15.0895 18.4711 14.3172 19.8874 13.8875C21.3038 13.4579 22.8042 13.3842 24.2558 13.6729C25.7074 13.9617 27.0654 14.604 28.2095 15.5429C29.3536 16.4818 30.2485 17.6885 30.8149 19.0558C31.3813 20.4232 31.6017 21.9092 31.4567 23.3822C31.3116 24.8551 30.8055 26.2695 29.9832 27.5001C29.1609 28.7308 28.0479 29.7396 26.7426 30.4373C25.4373 31.135 23.9801 31.5 22.5 31.5V45Z" fill="#805AD5"/>
<path d="M22.5 45C26.7198 45 30.8545 43.8133 34.4321 41.5755C38.0096 39.3377 40.8858 36.1389 42.7321 32.3445C44.5784 28.55 45.3204 24.3129 44.8734 20.1168C44.4265 15.9208 42.8085 11.935 40.2044 8.61458L29.5818 16.9458C30.6234 18.274 31.2706 19.8683 31.4494 21.5467C31.6282 23.2251 31.3313 24.92 30.5928 26.4378C29.8543 27.9556 28.7038 29.2351 27.2728 30.1302C25.8418 31.0253 24.1879 31.5 22.5 31.5V45Z" fill="#38B2AC"/>
<path d="M22.5 45C27.1177 45 31.6236 43.5792 35.4061 40.9305C39.1886 38.2817 42.0646 34.5333 43.6436 30.194L30.9574 25.5776C30.3258 27.3133 29.1754 28.8127 27.6624 29.8722C26.1494 30.9317 24.3471 31.5 22.5 31.5V45Z" fill="#F6E05E"/>
<circle cx="22.5" cy="22.5" r="3.6" fill="#6B46C1"/>
<circle cx="13.14" cy="38.52" r="3.6" fill="#F6AD55"/>
</svg>
