<svg width="20" height="20" viewBox="0 0 20 20" fill="none" xmlns="http://www.w3.org/2000/svg">
<g clip-path="url(#clip0_16_296)">
<path d="M2.49999 2.5H17.5C17.721 2.5 17.933 2.5878 18.0892 2.74408C18.2455 2.90036 18.3333 3.11232 18.3333 3.33333V16.6667C18.3333 16.8877 18.2455 17.0996 18.0892 17.2559C17.933 17.4122 17.721 17.5 17.5 17.5H2.49999C2.27898 17.5 2.06701 17.4122 1.91073 17.2559C1.75445 17.0996 1.66666 16.8877 1.66666 16.6667V3.33333C1.66666 3.11232 1.75445 2.90036 1.91073 2.74408C2.06701 2.5878 2.27898 2.5 2.49999 2.5ZM7.49999 10C7.49999 10.663 7.76338 11.2989 8.23222 11.7678C8.70106 12.2366 9.33695 12.5 9.99999 12.5C10.663 12.5 11.2989 12.2366 11.7678 11.7678C12.2366 11.2989 12.5 10.663 12.5 10H16.6667V4.16667H3.33332V10H7.49999Z" fill="#CBD5E0"/>
</g>
<defs>
<clipPath id="clip0_16_296">
<rect width="20" height="20" fill="white"/>
</clipPath>
</defs>
</svg>
